<svg xmlns="http://www.w3.org/2000/svg" width="500" height="200" fill="none"><path d="M37 102h38v67H37zm40-69h38v67H77z" fill="#ffa928"/><path d="M198.532 48.033h-16.976V34.317h26.55l13.768 13.716v13.975L215 68.892l6.884 6.884v13.5L208.107 103h-26.55V89.284h16.976V74.637h-16.976V62.68h16.976V48.033zm-43.476-13.716h22.877V103h-22.877V34.317zM264.938 103h-20.3l-12.836-12.836V27.07h22.877v62.213h10.25V103zm42.13 0V61.75h-32.555v-6.832l6.883-6.884h34.316l13.716 13.716V103h-22.36zm-3.623-31.986v9.523h-11.8v9.627h11.8v6.056l-6.832 6.78H279.12l-9.213-9.058V80.175l9.213-9.16h24.326zM390.864 103h-31.986l12.163-13.716h19.823V103zM339.83 48.033h30.9L358.878 61.75H339.83V48.033zm-.518 41.665l35.713-41.665h15.786V61.75L354.634 103h-15.32V89.698zM423.368 103h-9.16L400.5 89.284V61.75l13.716-13.716h9.16V103zm3.623-22.05v-9.575h12.06V61.75h-12.06V48.033h19.4l13.716 13.716v19.2H427zm0 22.05V90.164h30.744v5.952L450.903 103H427zm-269.65 52.6c-3.2 0-5.58-.22-7.14-.66v-3.9c2.4.64 4.54.96 6.42.96 1.56 0 2.74-.14 3.54-.42s1.36-.78 1.68-1.5c.32-.76.48-1.9.48-3.42v-30.6h5.82v30.36c0 2.48-.36 4.38-1.08 5.7-.72 1.28-1.84 2.18-3.36 2.7s-3.64.78-6.36.78zm32.78 0c-8.88 0-13.32-2.96-13.32-8.88v-11.46c0-3.52 1-6.04 3-7.56 2.04-1.56 5.32-2.34 9.84-2.34 4.28 0 7.36.74 9.24 2.22 1.92 1.48 2.88 4.04 2.88 7.68v6.42h-19.5v4.38c0 2 .7 3.44 2.1 4.32s3.56 1.32 6.48 1.32c2.76 0 6.02-.48 9.78-1.44v4.14c-3.68.8-7.18 1.2-10.5 1.2zm6.24-17.46v-4.56c0-1.76-.54-2.96-1.62-3.6-1.04-.68-2.84-1.02-5.4-1.02-2.48 0-4.28.34-5.4 1.02-1.12.64-1.68 1.84-1.68 3.6v4.56h14.1zm25.87 17.46c-8.88 0-13.32-2.96-13.32-8.88v-11.46c0-3.52 1-6.04 3-7.56 2.04-1.56 5.32-2.34 9.84-2.34 4.28 0 7.36.74 9.24 2.22 1.92 1.48 2.88 4.04 2.88 7.68v6.42h-19.5v4.38c0 2 .7 3.44 2.1 4.32s3.56 1.32 6.48 1.32c2.76 0 6.02-.48 9.78-1.44v4.14c-3.68.8-7.18 1.2-10.5 1.2zm6.24-17.46v-4.56c0-1.76-.54-2.96-1.62-3.6-1.04-.68-2.84-1.02-5.4-1.02-2.48 0-4.28.34-5.4 1.02-1.12.64-1.68 1.84-1.68 3.6v4.56h14.1zm13.63-12.18h5.34v3.12h.06c.44-2.48 3.74-3.72 9.9-3.72 3.68 0 6.46.78 8.34 2.34 1.88 1.52 2.82 3.48 2.82 5.88v11.94c0 1.72-.26 3.22-.78 4.5-.48 1.28-1.12 2.28-1.92 3-.72.68-1.72 1.22-3 1.62-1.24.4-2.48.66-3.72.78-1.12.12-2.48.18-4.08.18-1.76 0-3.38-.2-4.86-.6-1.44-.44-2.34-1.06-2.7-1.86v14.34h-5.4v-41.52zm13.08 25.98c2.08 0 3.66-.14 4.74-.42 1.12-.32 1.92-.88 2.4-1.68s.72-2.02.72-3.66V135.5c0-1.8-.24-3.14-.72-4.02s-1.28-1.46-2.4-1.74c-1.08-.32-2.68-.48-4.8-.48s-3.7.16-4.74.48c-1.04.28-1.78.86-2.22 1.74-.44.84-.66 2.18-.66 4.02v10.68c0 1.64.22 2.86.66 3.66.48.8 1.26 1.36 2.34 1.68 1.08.28 2.64.42 4.68.42zm35.854-35.88h13.68c3.44 0 6.12.22 8.04.66 1.96.4 3.38 1.14 4.26 2.22.92 1.08 1.38 2.66 1.38 4.74v6.72c0 2.32-.96 4.12-2.88 5.4-1.88 1.24-4.28 1.86-7.2 1.86l12.48 17.34h-7.14l-11.16-16.62h-5.64V155h-5.82v-38.94zm13.44 18.48c2.88 0 4.94-.34 6.18-1.02 1.28-.72 1.92-2 1.92-3.84v-5.4c0-2.92-2.52-4.38-7.56-4.38h-8.16v14.64h7.62zm36.35 21.06c-8.88 0-13.32-2.96-13.32-8.88v-11.46c0-3.52 1-6.04 3-7.56 2.04-1.56 5.32-2.34 9.84-2.34 4.28 0 7.36.74 9.24 2.22 1.92 1.48 2.88 4.04 2.88 7.68v6.42h-19.5v4.38c0 2 .7 3.44 2.1 4.32s3.56 1.32 6.48 1.32c2.76 0 6.02-.48 9.78-1.44v4.14c-3.68.8-7.18 1.2-10.5 1.2zm6.24-17.46v-4.56c0-1.76-.54-2.96-1.62-3.6-1.04-.68-2.84-1.02-5.4-1.02-2.48 0-4.28.34-5.4 1.02-1.12.64-1.68 1.84-1.68 3.6v4.56h14.1zm13.63-12.18h5.4v3.54c.56-2.76 3.74-4.14 9.54-4.14 3.72 0 6.32.68 7.8 2.04 1.52 1.32 2.28 3.42 2.28 6.3V155h-5.4v-21c0-.76-.06-1.38-.18-1.86s-.36-.96-.72-1.44c-.8-1-2.58-1.5-5.34-1.5-2.12 0-3.76.16-4.92.48-1.12.28-1.92.76-2.4 1.44-.44.68-.66 1.64-.66 2.88v21h-5.4v-29.04zm46.574 29.64c-2.48 0-4.42-.26-5.82-.78-1.4-.56-2.42-1.48-3.06-2.76-.6-1.32-.9-3.16-.9-5.52V129.5h-6.48v-3.54h6.48v-9h5.46v9h10.38v3.54h-10.38v17.34c0 1.44.16 2.52.48 3.24.36.72.96 1.24 1.8 1.56.88.28 2.14.42 3.78.42.52 0 1.96-.16 4.32-.48v3.54c-2.04.32-4.06.48-6.06.48zm20.9 0c-2.76 0-4.9-.26-6.42-.78-1.48-.52-2.56-1.44-3.24-2.76-.64-1.32-.96-3.22-.96-5.7 0-2.2.3-3.9.9-5.1.64-1.24 1.7-2.12 3.18-2.64 1.52-.52 3.66-.78 6.42-.78h8.7v-4.62c0-1.08-.22-1.9-.66-2.46-.4-.6-1.1-1.02-2.1-1.26-.96-.24-2.38-.36-4.26-.36-3 0-6.32.24-9.96.72v-3.96c3.96-.36 7.54-.54 10.74-.54 3.36 0 5.84.26 7.44.78 1.6.48 2.7 1.34 3.3 2.58s.9 3.16.9 5.76V155h-5.22v-2.76c-.44 2.24-3.36 3.36-8.76 3.36zm.9-3.54c1.96 0 3.62-.14 4.98-.42 1.8-.36 2.7-1.2 2.7-2.52v-7.92h-8.34c-1.72 0-2.96.14-3.72.42-.76.24-1.26.72-1.5 1.44s-.36 1.88-.36 3.48c0 1.44.14 2.56.42 3.36.28.76.78 1.32 1.5 1.68.72.32 1.8.48 3.24.48h1.08zM451.512 113h5.4v42h-5.4v-42z" fill="#000"/></svg>